<svg height="800" width="800" xmlns="http://www.w3.org/2000/svg" viewBox="0 0 512 512"><path d="M181.437 384.081c-33.195 19.391-58.155 51.332-68.39 89.314 40.653 23.757 87.738 37.704 138.017 38.563l4.935.042 59.219-61.687-64.154-66.232h-69.627z" fill="#c98a2e"/><path d="M330.561 384.081h-74.562V512c52.131 0 100.971-14.072 142.952-38.605-10.235-37.982-35.195-69.923-68.39-89.314z" fill="#ad712c"/><path d="M320.732 383.447l-19.495-19.495H256l-38.246 61.687L256 499.663l49.654-49.653c5.889-5.889 5.889-15.436 0-21.325l-4.417-4.417 19.495-19.495c5.889-5.89 5.889-15.438 0-21.326z" fill="#915729"/><path d="M210.762 363.951l-19.495 19.495c-5.889 5.889-5.889 15.436 0 21.325l19.495 19.495-4.417 4.417c-5.889 5.889-5.889 15.436 0 21.325l49.654 49.653v-135.71h-45.237z" fill="#ad712c"/><path d="M153.62 405.082c-19.194 18.386-33.451 41.884-40.573 68.313a282.92 282.92 0 0034.038 16.927l29.955-56.38a148.601 148.601 0 00-23.42-28.86z" fill="#ab5034"/><path d="M367.035 414.099a149.15 149.15 0 00-8.657-9.017 148.649 148.649 0 00-23.42 28.858l29.956 56.38c.708-.295 1.416-.59 2.121-.891a283.154 283.154 0 0031.915-16.036c-6.004-22.282-17.083-42.483-31.915-59.294z" fill="#8d472e"/><path d="M334.958 500.854a281.928 281.928 0 0029.956-10.532c-4.306-21.748-14.96-41.214-29.956-56.38v66.912z" fill="#915729"/><g fill="#d5a150"><path d="M147.084 490.322a281.405 281.405 0 0029.956 10.532v-66.913c-14.995 15.166-25.649 34.631-29.956 56.381zM206.65 388.9l49.212 49.075 49.487-49.349z"/><path d="M502.709 226.204c-1.007-28.166-23.452-51.407-51.57-53.347-10.5-.724-20.418 1.495-29.046 5.885-9.007-34.075-26.751-66.565-50.442-92.37-30.618-33.347-71.169-55.529-115.652-55.529-72.841 0-135.145 59.477-160.535 130.07a215.201 215.201 0 00-5.556 17.815l4.557 139.827c4.625 18.854 10.72 34.849 18.358 42.237 28.134 27.214 95.264 40.172 143.476 40.172s114.74-12.958 142.874-40.172c12.693-12.277 21.13-48.309 25.63-81.765a55.293 55.293 0 0022.424 4.731c31.339.001 56.612-25.963 55.482-57.554z"/></g><path d="M338.34 145.53c-4.734-4.659-12.271-5.496-18.333-2.043-10.01 5.7-20.746 10.002-31.872 12.844A129.883 129.883 0 01256 160.385c-22.456 0-44.59-5.843-64.006-16.898-6.066-3.452-13.603-2.614-18.331 2.039l-.666.661-48.779 48.781c-3.092 3.092-6.763 5.319-10.693 6.698a55.77 55.77 0 00-23.614-22.936l-.004.015c-8.628-4.39-18.546-6.609-29.046-5.885-28.118 1.939-50.562 25.179-51.57 53.347-1.131 31.589 24.142 57.553 55.48 57.553a55.306 55.306 0 0022.424-4.731c1.793 13.323 4.211 27.05 7.272 39.526 33.037 18.156 85.275 26.892 124.822 26.892 48.212 0 114.74-12.958 142.874-40.172 11.907-11.517 20.07-43.939 24.75-75.528 2.91-19.648-3.656-39.512-17.741-53.517a35144.46 35144.46 0 01-30.832-30.7z" fill="#e1b872"/><circle cx="447.228" cy="228.24" r="18.506" fill="#c98a2e"/><circle cx="64.77" cy="228.24" r="18.506" fill="#d5a150"/><path d="M129.821 43.18v31.774l-57.334 47.853c-5.242 12.105-7.717 25.219-7.717 38.391v11.524a55.252 55.252 0 0125.135 6.021l9.781 4.961a9.87 9.87 0 0011.444-1.823l48.781-48.781c.257-.257.513-.511.77-.765 10.789-10.62 27.312-12.422 40.469-4.932l54.849-84.222H129.821z" fill="#6d5b4d"/><path d="M129.821 43.18v31.774c-31.892 8.345-48.642 27.838-57.334 47.853a88.166 88.166 0 00-1.768 4.406c-3.095 8.363 1.852 17.671 10.593 19.436a84.165 84.165 0 016.846 1.684c8.291 2.414 17.237.028 23.342-6.077l29.645-29.642c11.468-11.287 26.709-17.476 42.969-17.476a62.284 62.284 0 0132.156 8.954l.069-.016 39.66-60.896H129.821z" fill="#827061"/><path d="M361.281 22.891c-50.276-21.434-146.792-41.23-221.902 6.671-33.026 21.057-9.558 45.392-9.558 45.392l71.328 52.451c16.179 9.211 34.899 14.474 54.849 14.474s38.67-5.263 54.849-14.475c13.157-7.49 29.68-5.688 40.469 4.932.258.254.514.508.771.765l48.781 48.781a9.87 9.87 0 0011.444 1.823l9.759-4.951a55.258 55.258 0 0125.156-6.031V147.03c.001-3.857-.608-87.748-85.946-124.139z" fill="#625143"/><path d="M179.764 10.495c-13.866 4.572-27.443 10.815-40.384 19.067a62.728 62.728 0 00-3.754 2.591l85.532 64.022c10.648 5.692 22.651 8.692 34.841 8.692 12.841 0 25.475-3.329 36.537-9.627a72.453 72.453 0 012.043-1.12c17.237-9.085 21.868-31.822 8.76-46.238C266.936 7.85 217.22 4.958 179.764 10.495z" fill="#827061"/><path d="M336.192 209.734H299.18a9.253 9.253 0 000 18.506c0 10.22 8.286 18.506 18.506 18.506s18.506-8.286 18.506-18.506a9.253 9.253 0 000-18.506zm-123.374 0h-37.012a9.253 9.253 0 000 18.506c0 10.22 8.286 18.506 18.506 18.506s18.506-8.286 18.506-18.506a9.253 9.253 0 000-18.506zm61.687 27.76h-37.012a9.253 9.253 0 000 18.506h37.012c5.111 0 9.253-4.143 9.253-9.253s-4.141-9.253-9.253-9.253z" fill="#474641"/><path d="M336.192 172.722H299.18a9.253 9.253 0 00-9.253 9.253 9.253 9.253 0 009.253 9.253h37.012a9.253 9.253 0 009.253-9.253 9.253 9.253 0 00-9.253-9.253zm-123.374 0h-37.012a9.253 9.253 0 000 18.506h37.012a9.253 9.253 0 000-18.506z" fill="#625143"/></svg>