<svg height="800" width="800" xmlns="http://www.w3.org/2000/svg" viewBox="0 0 511.999 511.999"><path d="M405.58 464.806c-6.345-23.089-17.945-43.989-33.419-61.354a154.32 154.32 0 00-9.028-9.311 154.522 154.522 0 00-19.196 22.527l-19.87-15.516-144.62-27.884a154.332 154.332 0 00-28.752 21.932c-19.818 19.175-34.489 43.628-41.741 71.084a293.445 293.445 0 0035.4 17.385l19.271-36.711 11.863 47.483c26.043 7.395 53.547 11.296 81.977 11.155 21.98-.109 43.383-2.628 63.965-7.301a292.258 292.258 0 0017.897-4.67 292.107 292.107 0 0031.025-11.082c.733-.31 1.466-.62 2.197-.934a293.89 293.89 0 0033.031-16.803z" fill="#c6dcd1"/><g fill="#92bcbc"><path d="M394.716 436.586c-10.697-21.234-26.171-39.638-45.008-53.808a153.752 153.752 0 00-15.543-10.281l-154.716.771a155.165 155.165 0 00-6.267 3.91c18.995 25.63 49.51 42.192 83.856 42.02 16.88-.085 32.791-4.204 46.838-11.431 5.02-2.583 11.058-2.173 15.806.882l.292.188a41.859 41.859 0 0119.108 34.923l.248 49.867a292.26 292.26 0 0031.024-11.082 295.793 295.793 0 0013.458-6.083l.086-.041c1.39-.671 2.774-1.354 4.151-2.047l.315-.156a319.188 319.188 0 003.862-1.985c.18-.095.363-.187.545-.282 1.197-.629 2.386-1.27 3.574-1.914.256-.14.515-.275.771-.415a298.69 298.69 0 003.38-1.884c.297-.168.596-.33.892-.499a288.225 288.225 0 004.106-2.381l.086-.05a152.522 152.522 0 00-10.864-28.222zM144.357 483.67a292.55 292.55 0 0031.134 10.773l-.346-69.423c-15.481 15.813-26.434 36.063-30.788 58.65z"/><path d="M454.113 152.61a57.324 57.324 0 00-26.046 6.376c-17.572-65.156-65.981-124.553-126.9-145.025L162.689 364.208c27.426 16.766 59.697 26.363 94.204 26.19 81.218-.405 149.534-54.782 171.159-128.97a57.32 57.32 0 0026.633 6.382c31.811-.159 57.471-26.075 57.313-57.887-.159-31.813-26.074-57.472-57.885-57.313z"/></g><path d="M396.705 191.297c-.34-68.391-39.016-139.861-95.538-177.336-14.75-4.957-30.23-7.642-46.187-7.562-81.862.407-150.54 73.158-171.559 154.304a57.327 57.327 0 00-26.108-6.116C25.502 154.746-.158 180.662 0 212.474s26.075 57.471 57.887 57.313a57.317 57.317 0 0026.569-6.647c12.863 42.541 41.106 78.373 78.232 101.067 18.995 4.75 37.886 7.272 55.709 7.182 98.97-.493 178.801-81.123 178.308-180.092z" fill="#c6dcd1"/><circle cx="57.601" cy="212.187" r="19.2" fill="#92bcbc"/><circle cx="454.405" cy="210.216" r="19.2" fill="#78abb1"/><circle cx="192.003" cy="211.201" r="19.2" fill="#5b5751"/><path d="M256.001 259.198c-15.881 0-28.8-12.92-28.8-28.8a9.6 9.6 0 019.6-9.6 9.6 9.6 0 019.6 9.6c0 5.294 4.306 9.6 9.6 9.6s9.6-4.306 9.6-9.6a9.6 9.6 0 019.6-9.6 9.6 9.6 0 019.6 9.6c0 15.881-12.919 28.8-28.8 28.8z" fill="#5b7676"/><circle cx="320.004" cy="211.201" r="19.2" fill="#5b5751"/><path d="M174.205 166.038c-4.047 0-7.811-2.579-9.128-6.637-1.638-5.042 1.121-10.459 6.163-12.096 13.598-4.417 27.958-4.419 41.525-.001 5.042 1.641 7.798 7.059 6.157 12.101a9.598 9.598 0 01-12.1 6.157c-9.685-3.154-19.937-3.153-29.649.004a9.593 9.593 0 01-2.968.472zm128.002 0c-4.047 0-7.811-2.579-9.128-6.637-1.638-5.042 1.121-10.459 6.163-12.096 13.598-4.417 27.958-4.419 41.525-.001 5.042 1.641 7.798 7.059 6.157 12.101-1.641 5.041-7.059 7.799-12.1 6.157-9.683-3.154-19.936-3.153-29.649.004a9.598 9.598 0 01-2.968.472z" fill="#5b7676"/></svg>